<mxfile host="www.draw.io" modified="2019-12-23T01:18:25.162Z" agent="Mozilla/5.0 (Windows NT 10.0; Win64; x64; rv:71.0) Gecko/20100101 Firefox/71.0" etag="D42iAUu1RS6VOjEcrlAx" version="12.4.3" type="github" pages="1">
  <diagram id="ARlySnIh4Fg0utdHiu1E" name="Page-1">
    <mxGraphModel dx="664" dy="508" grid="1" gridSize="10" guides="1" tooltips="1" connect="1" arrows="1" fold="1" page="1" pageScale="1" pageWidth="4681" pageHeight="3300" math="0" shadow="0">
      <root>
        <mxCell id="0"/>
        <mxCell id="1" parent="0"/>
        <mxCell id="NjvX_le-xmu8w4d36AcX-5" value="DDS Core" style="rounded=0;whiteSpace=wrap;html=1;" parent="1" vertex="1">
          <mxGeometry x="720" y="440" width="170" height="480" as="geometry"/>
        </mxCell>
        <mxCell id="NjvX_le-xmu8w4d36AcX-18" value="fm" style="rounded=0;whiteSpace=wrap;html=1;" parent="1" vertex="1">
          <mxGeometry x="700" y="650" width="40" height="20" as="geometry"/>
        </mxCell>
        <mxCell id="NjvX_le-xmu8w4d36AcX-19" value="pm" style="rounded=0;whiteSpace=wrap;html=1;" parent="1" vertex="1">
          <mxGeometry x="700" y="850" width="40" height="20" as="geometry"/>
        </mxCell>
        <mxCell id="NjvX_le-xmu8w4d36AcX-32" value="pm_scaled" style="edgeStyle=orthogonalEdgeStyle;rounded=0;orthogonalLoop=1;jettySize=auto;html=1;entryX=0;entryY=0.5;entryDx=0;entryDy=0;exitX=1;exitY=0.5;exitDx=0;exitDy=0;" parent="1" source="NjvX_le-xmu8w4d36AcX-39" target="NjvX_le-xmu8w4d36AcX-19" edge="1">
          <mxGeometry relative="1" as="geometry">
            <mxPoint x="640" y="860" as="targetPoint"/>
          </mxGeometry>
        </mxCell>
        <mxCell id="NjvX_le-xmu8w4d36AcX-25" value="pm" style="edgeStyle=orthogonalEdgeStyle;rounded=0;orthogonalLoop=1;jettySize=auto;html=1;exitX=1;exitY=0.5;exitDx=0;exitDy=-5;exitPerimeter=0;entryX=0;entryY=0.5;entryDx=0;entryDy=0;" parent="1" source="NjvX_le-xmu8w4d36AcX-26" target="NjvX_le-xmu8w4d36AcX-45" edge="1">
          <mxGeometry x="-0.3397" relative="1" as="geometry">
            <mxPoint as="offset"/>
            <mxPoint x="310" y="860" as="targetPoint"/>
          </mxGeometry>
        </mxCell>
        <mxCell id="NjvX_le-xmu8w4d36AcX-26" value="Mux" style="shadow=0;dashed=0;align=center;html=1;strokeWidth=1;shape=mxgraph.electrical.abstract.mux2;selectorPins=3;" parent="1" vertex="1">
          <mxGeometry x="240" y="800" width="80" height="130" as="geometry"/>
        </mxCell>
        <mxCell id="NjvX_le-xmu8w4d36AcX-27" value="" style="edgeStyle=orthogonalEdgeStyle;rounded=0;orthogonalLoop=1;jettySize=auto;html=1;entryX=0.5;entryY=0;entryDx=0;entryDy=0;" parent="1" source="NjvX_le-xmu8w4d36AcX-28" target="NjvX_le-xmu8w4d36AcX-45" edge="1">
          <mxGeometry relative="1" as="geometry">
            <mxPoint x="420" y="840" as="targetPoint"/>
          </mxGeometry>
        </mxCell>
        <mxCell id="NjvX_le-xmu8w4d36AcX-28" value="pm_gain" style="text;html=1;strokeColor=none;fillColor=none;align=center;verticalAlign=middle;whiteSpace=wrap;rounded=0;" parent="1" vertex="1">
          <mxGeometry x="390" y="800" width="60" height="20" as="geometry"/>
        </mxCell>
        <mxCell id="NjvX_le-xmu8w4d36AcX-29" value="" style="edgeStyle=orthogonalEdgeStyle;rounded=0;orthogonalLoop=1;jettySize=auto;html=1;entryX=0.5;entryY=0;entryDx=0;entryDy=0;" parent="1" source="NjvX_le-xmu8w4d36AcX-30" target="NjvX_le-xmu8w4d36AcX-42" edge="1">
          <mxGeometry relative="1" as="geometry">
            <mxPoint x="500" y="840" as="targetPoint"/>
          </mxGeometry>
        </mxCell>
        <mxCell id="NjvX_le-xmu8w4d36AcX-30" value="&lt;div&gt;pm_offset&lt;/div&gt;" style="text;html=1;strokeColor=none;fillColor=none;align=center;verticalAlign=middle;whiteSpace=wrap;rounded=0;" parent="1" vertex="1">
          <mxGeometry x="450" y="800" width="60" height="20" as="geometry"/>
        </mxCell>
        <mxCell id="NjvX_le-xmu8w4d36AcX-33" value="step" style="rounded=0;whiteSpace=wrap;html=1;" parent="1" vertex="1">
          <mxGeometry x="870" y="480" width="40" height="20" as="geometry"/>
        </mxCell>
        <mxCell id="NjvX_le-xmu8w4d36AcX-35" value="step" style="rounded=0;whiteSpace=wrap;html=1;" parent="1" vertex="1">
          <mxGeometry x="710" y="480" width="40" height="20" as="geometry"/>
        </mxCell>
        <mxCell id="NjvX_le-xmu8w4d36AcX-36" value="" style="pointerEvents=1;verticalLabelPosition=bottom;shadow=0;dashed=0;align=center;html=1;verticalAlign=top;shape=mxgraph.electrical.waveforms.sine_wave;" parent="1" vertex="1">
          <mxGeometry x="760" y="554" width="90" height="66.18" as="geometry"/>
        </mxCell>
        <mxCell id="NjvX_le-xmu8w4d36AcX-55" value="" style="group" parent="1" vertex="1" connectable="0">
          <mxGeometry x="400" y="840" width="160" height="40" as="geometry"/>
        </mxCell>
        <mxCell id="NjvX_le-xmu8w4d36AcX-38" value="" style="rounded=0;whiteSpace=wrap;html=1;fillColor=#f5f5f5;strokeColor=#666666;fontColor=#333333;" parent="NjvX_le-xmu8w4d36AcX-55" vertex="1">
          <mxGeometry width="160" height="40" as="geometry"/>
        </mxCell>
        <mxCell id="NjvX_le-xmu8w4d36AcX-48" value="" style="group" parent="NjvX_le-xmu8w4d36AcX-55" vertex="1" connectable="0">
          <mxGeometry width="40" height="40" as="geometry"/>
        </mxCell>
        <mxCell id="NjvX_le-xmu8w4d36AcX-45" value="" style="ellipse;whiteSpace=wrap;html=1;aspect=fixed;" parent="NjvX_le-xmu8w4d36AcX-48" vertex="1">
          <mxGeometry width="40" height="40" as="geometry"/>
        </mxCell>
        <mxCell id="NjvX_le-xmu8w4d36AcX-47" value="" style="shape=image;html=1;verticalAlign=top;verticalLabelPosition=bottom;labelBackgroundColor=#ffffff;imageAspect=0;aspect=fixed;image=https://cdn4.iconfinder.com/data/icons/integral/128/cross-128.png" parent="NjvX_le-xmu8w4d36AcX-48" vertex="1">
          <mxGeometry x="10" y="10" width="20" height="20" as="geometry"/>
        </mxCell>
        <mxCell id="NjvX_le-xmu8w4d36AcX-49" value="" style="group" parent="NjvX_le-xmu8w4d36AcX-55" vertex="1" connectable="0">
          <mxGeometry x="60" width="40" height="40" as="geometry"/>
        </mxCell>
        <mxCell id="NjvX_le-xmu8w4d36AcX-42" value="" style="ellipse;whiteSpace=wrap;html=1;aspect=fixed;" parent="NjvX_le-xmu8w4d36AcX-49" vertex="1">
          <mxGeometry width="40" height="40" as="geometry"/>
        </mxCell>
        <mxCell id="NjvX_le-xmu8w4d36AcX-44" value="" style="shape=image;html=1;verticalAlign=top;verticalLabelPosition=bottom;labelBackgroundColor=#ffffff;imageAspect=0;aspect=fixed;image=https://cdn4.iconfinder.com/data/icons/integral/128/plus-128.png" parent="NjvX_le-xmu8w4d36AcX-49" vertex="1">
          <mxGeometry x="10" y="10" width="20" height="20" as="geometry"/>
        </mxCell>
        <mxCell id="NjvX_le-xmu8w4d36AcX-22" value="" style="edgeStyle=orthogonalEdgeStyle;rounded=0;orthogonalLoop=1;jettySize=auto;html=1;exitX=1;exitY=0.5;exitDx=0;exitDy=0;entryX=0;entryY=0.5;entryDx=0;entryDy=0;" parent="NjvX_le-xmu8w4d36AcX-55" source="NjvX_le-xmu8w4d36AcX-45" target="NjvX_le-xmu8w4d36AcX-42" edge="1">
          <mxGeometry relative="1" as="geometry">
            <mxPoint x="40" y="20" as="sourcePoint"/>
            <mxPoint x="80" y="20" as="targetPoint"/>
          </mxGeometry>
        </mxCell>
        <mxCell id="NjvX_le-xmu8w4d36AcX-53" value="" style="group" parent="NjvX_le-xmu8w4d36AcX-55" vertex="1" connectable="0">
          <mxGeometry x="120" width="40" height="40" as="geometry"/>
        </mxCell>
        <mxCell id="NjvX_le-xmu8w4d36AcX-39" value="" style="ellipse;whiteSpace=wrap;html=1;aspect=fixed;" parent="NjvX_le-xmu8w4d36AcX-53" vertex="1">
          <mxGeometry width="40" height="40" as="geometry"/>
        </mxCell>
        <mxCell id="NjvX_le-xmu8w4d36AcX-37" value="" style="pointerEvents=1;verticalLabelPosition=bottom;shadow=0;dashed=0;align=center;html=1;verticalAlign=top;shape=mxgraph.electrical.waveforms.slow_square_wave;" parent="NjvX_le-xmu8w4d36AcX-53" vertex="1">
          <mxGeometry x="10" y="10" width="20" height="20" as="geometry"/>
        </mxCell>
        <mxCell id="NjvX_le-xmu8w4d36AcX-41" style="edgeStyle=orthogonalEdgeStyle;rounded=0;orthogonalLoop=1;jettySize=auto;html=1;exitX=1;exitY=0.5;exitDx=0;exitDy=0;entryX=0;entryY=0.5;entryDx=0;entryDy=0;" parent="NjvX_le-xmu8w4d36AcX-55" source="NjvX_le-xmu8w4d36AcX-42" target="NjvX_le-xmu8w4d36AcX-39" edge="1">
          <mxGeometry relative="1" as="geometry">
            <mxPoint x="120" y="20" as="sourcePoint"/>
          </mxGeometry>
        </mxCell>
        <mxCell id="f3gElK0zdPHBt8XRck2W-1" value="pm_scaled" style="edgeStyle=orthogonalEdgeStyle;rounded=0;orthogonalLoop=1;jettySize=auto;html=1;exitX=1;exitY=0.5;exitDx=0;exitDy=0;entryX=0;entryY=0.5;entryDx=0;entryDy=0;" edge="1" parent="1" source="f3gElK0zdPHBt8XRck2W-18" target="NjvX_le-xmu8w4d36AcX-18">
          <mxGeometry relative="1" as="geometry">
            <mxPoint x="700" y="660" as="targetPoint"/>
          </mxGeometry>
        </mxCell>
        <mxCell id="f3gElK0zdPHBt8XRck2W-2" value="pm" style="edgeStyle=orthogonalEdgeStyle;rounded=0;orthogonalLoop=1;jettySize=auto;html=1;exitX=1;exitY=0.5;exitDx=0;exitDy=-5;exitPerimeter=0;entryX=0;entryY=0.5;entryDx=0;entryDy=0;" edge="1" parent="1" source="f3gElK0zdPHBt8XRck2W-3" target="f3gElK0zdPHBt8XRck2W-11">
          <mxGeometry x="-0.3397" relative="1" as="geometry">
            <mxPoint as="offset"/>
            <mxPoint x="310" y="660" as="targetPoint"/>
          </mxGeometry>
        </mxCell>
        <mxCell id="f3gElK0zdPHBt8XRck2W-3" value="Mux" style="shadow=0;dashed=0;align=center;html=1;strokeWidth=1;shape=mxgraph.electrical.abstract.mux2;selectorPins=3;" vertex="1" parent="1">
          <mxGeometry x="240" y="600" width="80" height="130" as="geometry"/>
        </mxCell>
        <mxCell id="f3gElK0zdPHBt8XRck2W-4" value="" style="edgeStyle=orthogonalEdgeStyle;rounded=0;orthogonalLoop=1;jettySize=auto;html=1;entryX=0.5;entryY=0;entryDx=0;entryDy=0;" edge="1" parent="1" source="f3gElK0zdPHBt8XRck2W-5" target="f3gElK0zdPHBt8XRck2W-11">
          <mxGeometry relative="1" as="geometry">
            <mxPoint x="420" y="640" as="targetPoint"/>
          </mxGeometry>
        </mxCell>
        <mxCell id="f3gElK0zdPHBt8XRck2W-5" value="pm_gain" style="text;html=1;strokeColor=none;fillColor=none;align=center;verticalAlign=middle;whiteSpace=wrap;rounded=0;" vertex="1" parent="1">
          <mxGeometry x="390" y="600" width="60" height="20" as="geometry"/>
        </mxCell>
        <mxCell id="f3gElK0zdPHBt8XRck2W-6" value="" style="edgeStyle=orthogonalEdgeStyle;rounded=0;orthogonalLoop=1;jettySize=auto;html=1;entryX=0.5;entryY=0;entryDx=0;entryDy=0;" edge="1" parent="1" source="f3gElK0zdPHBt8XRck2W-7" target="f3gElK0zdPHBt8XRck2W-14">
          <mxGeometry relative="1" as="geometry">
            <mxPoint x="500" y="640" as="targetPoint"/>
          </mxGeometry>
        </mxCell>
        <mxCell id="f3gElK0zdPHBt8XRck2W-7" value="&lt;div&gt;pm_offset&lt;/div&gt;" style="text;html=1;strokeColor=none;fillColor=none;align=center;verticalAlign=middle;whiteSpace=wrap;rounded=0;" vertex="1" parent="1">
          <mxGeometry x="450" y="600" width="60" height="20" as="geometry"/>
        </mxCell>
        <mxCell id="f3gElK0zdPHBt8XRck2W-8" value="" style="group" vertex="1" connectable="0" parent="1">
          <mxGeometry x="400" y="640" width="160" height="40" as="geometry"/>
        </mxCell>
        <mxCell id="f3gElK0zdPHBt8XRck2W-9" value="" style="rounded=0;whiteSpace=wrap;html=1;fillColor=#f5f5f5;strokeColor=#666666;fontColor=#333333;" vertex="1" parent="f3gElK0zdPHBt8XRck2W-8">
          <mxGeometry width="160" height="40" as="geometry"/>
        </mxCell>
        <mxCell id="f3gElK0zdPHBt8XRck2W-10" value="" style="group" vertex="1" connectable="0" parent="f3gElK0zdPHBt8XRck2W-8">
          <mxGeometry width="40" height="40" as="geometry"/>
        </mxCell>
        <mxCell id="f3gElK0zdPHBt8XRck2W-11" value="" style="ellipse;whiteSpace=wrap;html=1;aspect=fixed;" vertex="1" parent="f3gElK0zdPHBt8XRck2W-10">
          <mxGeometry width="40" height="40" as="geometry"/>
        </mxCell>
        <mxCell id="f3gElK0zdPHBt8XRck2W-12" value="" style="shape=image;html=1;verticalAlign=top;verticalLabelPosition=bottom;labelBackgroundColor=#ffffff;imageAspect=0;aspect=fixed;image=https://cdn4.iconfinder.com/data/icons/integral/128/cross-128.png" vertex="1" parent="f3gElK0zdPHBt8XRck2W-10">
          <mxGeometry x="10" y="10" width="20" height="20" as="geometry"/>
        </mxCell>
        <mxCell id="f3gElK0zdPHBt8XRck2W-13" value="" style="group" vertex="1" connectable="0" parent="f3gElK0zdPHBt8XRck2W-8">
          <mxGeometry x="60" width="40" height="40" as="geometry"/>
        </mxCell>
        <mxCell id="f3gElK0zdPHBt8XRck2W-14" value="" style="ellipse;whiteSpace=wrap;html=1;aspect=fixed;" vertex="1" parent="f3gElK0zdPHBt8XRck2W-13">
          <mxGeometry width="40" height="40" as="geometry"/>
        </mxCell>
        <mxCell id="f3gElK0zdPHBt8XRck2W-15" value="" style="shape=image;html=1;verticalAlign=top;verticalLabelPosition=bottom;labelBackgroundColor=#ffffff;imageAspect=0;aspect=fixed;image=https://cdn4.iconfinder.com/data/icons/integral/128/plus-128.png" vertex="1" parent="f3gElK0zdPHBt8XRck2W-13">
          <mxGeometry x="10" y="10" width="20" height="20" as="geometry"/>
        </mxCell>
        <mxCell id="f3gElK0zdPHBt8XRck2W-16" value="" style="edgeStyle=orthogonalEdgeStyle;rounded=0;orthogonalLoop=1;jettySize=auto;html=1;exitX=1;exitY=0.5;exitDx=0;exitDy=0;entryX=0;entryY=0.5;entryDx=0;entryDy=0;" edge="1" parent="f3gElK0zdPHBt8XRck2W-8" source="f3gElK0zdPHBt8XRck2W-11" target="f3gElK0zdPHBt8XRck2W-14">
          <mxGeometry relative="1" as="geometry">
            <mxPoint x="40" y="20" as="sourcePoint"/>
            <mxPoint x="80" y="20" as="targetPoint"/>
          </mxGeometry>
        </mxCell>
        <mxCell id="f3gElK0zdPHBt8XRck2W-17" value="" style="group" vertex="1" connectable="0" parent="f3gElK0zdPHBt8XRck2W-8">
          <mxGeometry x="120" width="40" height="40" as="geometry"/>
        </mxCell>
        <mxCell id="f3gElK0zdPHBt8XRck2W-18" value="" style="ellipse;whiteSpace=wrap;html=1;aspect=fixed;" vertex="1" parent="f3gElK0zdPHBt8XRck2W-17">
          <mxGeometry width="40" height="40" as="geometry"/>
        </mxCell>
        <mxCell id="f3gElK0zdPHBt8XRck2W-19" value="" style="pointerEvents=1;verticalLabelPosition=bottom;shadow=0;dashed=0;align=center;html=1;verticalAlign=top;shape=mxgraph.electrical.waveforms.slow_square_wave;" vertex="1" parent="f3gElK0zdPHBt8XRck2W-17">
          <mxGeometry x="10" y="10" width="20" height="20" as="geometry"/>
        </mxCell>
        <mxCell id="f3gElK0zdPHBt8XRck2W-20" style="edgeStyle=orthogonalEdgeStyle;rounded=0;orthogonalLoop=1;jettySize=auto;html=1;exitX=1;exitY=0.5;exitDx=0;exitDy=0;entryX=0;entryY=0.5;entryDx=0;entryDy=0;" edge="1" parent="f3gElK0zdPHBt8XRck2W-8" source="f3gElK0zdPHBt8XRck2W-14" target="f3gElK0zdPHBt8XRck2W-18">
          <mxGeometry relative="1" as="geometry">
            <mxPoint x="120" y="20" as="sourcePoint"/>
          </mxGeometry>
        </mxCell>
      </root>
    </mxGraphModel>
  </diagram>
</mxfile>
